<mxfile host="app.diagrams.net" modified="2023-10-31T11:23:53.689Z" agent="Mozilla/5.0 (Macintosh; Intel Mac OS X 10_15_7) AppleWebKit/537.36 (KHTML, like Gecko) Chrome/118.0.0.0 Safari/537.36" version="22.0.8" etag="JQhMWgjm1iF-PZm7-T4Z" type="github">
  <diagram name="第 1 页" id="tGd2e7f7FJI7eObFmVTi">
    <mxGraphModel>
      <root>
        <mxCell id="0" />
        <mxCell id="1" parent="0" />
      </root>
    </mxGraphModel>
  </diagram>
</mxfile>
